<?xml version="1.0" encoding="iso-8859-1"?>
<!-- Generator: Adobe Illustrator 21.1.0, SVG Export Plug-In . SVG Version: 6.00 Build 0)  -->
<svg version="1.1" id="Layer_1" xmlns="http://www.w3.org/2000/svg" xmlns:xlink="http://www.w3.org/1999/xlink" x="0px" y="0px"
	 width="128px" height="128px" viewBox="0 0 128 128" style="enable-background:new 0 0 128 128;" xml:space="preserve">
<g id="Phone_2_x40_2x.png" style="display:none;">
	<g style="display:inline;">
		<path style="fill:#0B80E0;" d="M126.031,101.388c0-2.353-0.955-4.484-2.497-6.026c-0.452-0.455-0.968-0.838-1.515-1.179
			L97.966,75.475c-1.543-1.543-3.673-2.497-6.026-2.497c-1.928,0-3.684,0.666-5.108,1.748l-6.711,6.764l-0.017-0.017
			c-1.04,1.163-2.536,1.909-4.217,1.909c-1.923,0-3.612-0.96-4.644-2.419c-0.036,0.056-0.083,0.108-0.119,0.167
			c-9.285-6.736-17.512-14.845-24.239-24.14c0.066-0.044,0.125-0.094,0.191-0.139c-1.482-1.035-2.455-2.747-2.455-4.691
			c0-1.74,0.793-3.279,2.017-4.328l-0.009-0.011l6.678-6.628c1.085-1.418,1.745-3.174,1.745-5.102c0-2.353-0.955-4.483-2.497-6.026
			L33.849,6.012c-0.343-0.544-0.726-1.06-1.179-1.515C31.127,2.954,28.996,2,26.644,2C15.28,2,1.076,15.356,1.076,31.83
			c0,4.564,1.056,8.872,2.887,12.74l-0.093,0.094c17.093,34.041,45.502,62.45,79.545,79.543l0.091-0.091
			c3.867,1.831,8.176,2.885,12.74,2.885c16.474,0,29.83-14.205,29.83-25.568c0-0.014-0.003-0.028-0.003-0.044H126.031z
			 M96.246,121.318c-3.562,0-7.03-0.788-10.308-2.339c-0.306-0.144-0.623-0.258-0.946-0.341
			C52.699,102.161,25.938,75.406,9.455,43.116c-0.089-0.33-0.207-0.661-0.358-0.977c-1.552-3.282-2.34-6.75-2.34-10.309
			c0-13.777,12.064-24.148,19.886-24.148c1.022,0,1.698,0.522,2.009,0.832c0.072,0.075,0.198,0.222,0.386,0.522
			c0.101,0.161,0.209,0.316,0.326,0.466l18.707,24.053c0.144,0.186,0.301,0.361,0.467,0.527c0.311,0.31,0.832,0.987,0.832,2.008
			c0,0.502-0.139,0.976-0.412,1.415l-6.331,6.281c-0.029,0.03-0.057,0.058-0.086,0.089c-2.296,2.159-3.603,5.149-3.603,8.284
			c0,2.935,1.137,5.732,3.12,7.829c0.071,0.111,0.144,0.222,0.223,0.33c6.983,9.649,15.564,18.197,25.506,25.41
			c0.076,0.055,0.154,0.108,0.233,0.161c2.1,2.014,4.916,3.174,7.867,3.174c2.967,0,5.826-1.185,7.948-3.274
			c0.11-0.094,0.216-0.194,0.319-0.299l6.363-6.412c0.445-0.277,0.922-0.419,1.422-0.419c1.022,0,1.698,0.522,2.008,0.832
			c0.167,0.167,0.343,0.322,0.527,0.472l24.055,18.704c0.154,0.119,0.315,0.23,0.48,0.333c0.301,0.189,0.438,0.311,0.506,0.377
			c0.311,0.311,0.832,0.985,0.832,2.009c0,0.191,0.01,0.38,0.029,0.571C119.935,109.783,109.721,121.318,96.246,121.318z
			 M69.291,36.091c12.552,0,22.727,10.176,22.727,22.73c0,1.567,1.272,2.838,2.841,2.838c1.569,0,2.841-1.271,2.841-2.838
			c0-15.692-12.719-28.412-28.409-28.412c-1.569,0-2.841,1.271-2.841,2.841C66.45,34.82,67.722,36.091,69.291,36.091z M69.291,7.682
			c28.241,0,51.136,22.897,51.136,51.139c0,1.567,1.272,2.838,2.841,2.838c1.569,0,2.841-1.271,2.841-2.838
			C126.109,27.438,100.671,2,69.291,2c-1.569,0-2.841,1.273-2.841,2.841C66.45,6.411,67.722,7.682,69.291,7.682z M69.291,64.5
			c3.138,0,5.682-2.544,5.682-5.679c0-3.141-2.544-5.685-5.682-5.685c-3.138,0-5.682,2.544-5.682,5.685
			C63.609,61.956,66.153,64.5,69.291,64.5z"/>
	</g>
</g>
<g id="Chat_Bubbles_x40_2x.png">
	<path style="fill:#0B80E0;" d="M47.363,38.054c-24.788,0-44.886,16.955-44.886,37.872c0,10.745,5.326,20.418,13.841,27.308
		l-5.424,18.98l25.161-9.676c3.619,0.794,7.394,1.26,11.309,1.26c24.788,0,44.886-16.955,44.886-37.872
		C92.248,55.009,72.15,38.054,47.363,38.054z M47.363,108.188c-3.29,0-6.69-0.378-10.109-1.129c-0.394-0.088-0.8-0.132-1.2-0.132
		c-0.685,0-1.37,0.126-2.016,0.373l-14.66,5.641l2.332-8.164c0.619-2.164-0.115-4.487-1.863-5.901
		c-7.583-6.14-11.758-14.287-11.758-22.95c0-17.788,17.619-32.262,39.275-32.262s39.275,14.473,39.275,32.262
		C86.638,93.714,69.019,108.188,47.363,108.188z M125.913,47.872C125.913,26.955,105.818,10,81.027,10
		c-18.514,0-34.404,9.462-41.264,22.969c2.214-0.285,4.466-0.469,6.761-0.496c6.668-10.035,19.632-16.862,34.503-16.862
		c21.657,0,39.275,14.473,39.275,32.262c0,8.663-4.175,16.81-11.758,22.947c-1.748,1.416-2.485,3.742-1.866,5.904l2.334,8.164
		l-11.6-4.463c-0.227,1.901-0.646,3.75-1.151,5.57l21.235,8.167l-5.424-18.98C120.59,68.291,125.913,58.614,125.913,47.872z"/>
</g>
<g id="Mails" style="display:none;">
	<g style="display:inline;">
		<path style="fill:#0B80E0;" d="M92.631,39.011H14.975c-6.127,0-11.094,4.967-11.094,11.094v49.922
			c0,6.127,4.967,11.094,11.094,11.094h77.656c6.127,0,11.094-4.967,11.094-11.094V50.105
			C103.725,43.979,98.758,39.011,92.631,39.011z M14.975,44.558h77.656c1.381,0,2.633,0.526,3.602,1.362L57.563,84.592
			c-1.005,0.999-2.34,1.557-3.759,1.557c-1.419,0-2.755-0.558-3.759-1.557L11.373,45.918C12.345,45.084,13.594,44.558,14.975,44.558
			z M9.428,51.817l23.249,23.249L9.428,98.315V51.817z M92.631,105.574H14.975c-1.381,0-2.63-0.523-3.602-1.359l25.226-25.226
			l9.523,9.523c2.123,2.123,4.902,3.185,7.681,3.185c2.781,0,5.56-1.062,7.681-3.185l9.523-9.523l25.226,25.226
			C95.264,105.051,94.013,105.574,92.631,105.574z M98.178,98.315L74.929,75.066L98.178,51.82V98.315z M114.819,16.824H37.163
			c-6.126,0-11.094,4.967-11.094,11.094v2.773c0,1.533,1.241,2.773,2.773,2.773c1.533,0,2.773-1.241,2.773-2.773v-2.773
			c0-3.063,2.484-5.547,5.547-5.547h77.656c3.063,0,5.547,2.484,5.547,5.547v49.922c0,3.063-2.484,5.547-5.547,5.547h-2.773
			c-1.533,0-2.773,1.243-2.773,2.773c0,1.533,1.24,2.773,2.773,2.773h2.773c6.127,0,11.094-4.967,11.094-11.094V27.918
			C125.913,21.791,120.945,16.824,114.819,16.824z"/>
	</g>
</g>
</svg>
