<?xml version="1.0" encoding="iso-8859-1"?>
<!-- Generator: Adobe Illustrator 21.1.0, SVG Export Plug-In . SVG Version: 6.00 Build 0)  -->
<svg version="1.1" id="Layer_1" xmlns="http://www.w3.org/2000/svg" xmlns:xlink="http://www.w3.org/1999/xlink" x="0px" y="0px"
	 width="128px" height="128px" viewBox="0 0 128 128" style="enable-background:new 0 0 128 128;" xml:space="preserve">
<g id="Phone_2_x40_2x.png">
	<g>
		<path style="fill:#0B80E0;" d="M126.031,101.388c0-2.353-0.955-4.484-2.497-6.026c-0.452-0.455-0.968-0.838-1.515-1.179
			L97.966,75.475c-1.543-1.543-3.673-2.497-6.026-2.497c-1.928,0-3.684,0.666-5.108,1.748l-6.711,6.764l-0.017-0.017
			c-1.04,1.163-2.536,1.909-4.217,1.909c-1.923,0-3.612-0.96-4.644-2.419c-0.036,0.056-0.083,0.108-0.119,0.167
			c-9.285-6.736-17.512-14.845-24.239-24.14c0.066-0.044,0.125-0.094,0.191-0.139c-1.482-1.035-2.455-2.747-2.455-4.691
			c0-1.74,0.793-3.279,2.017-4.328l-0.009-0.011l6.678-6.628c1.085-1.418,1.745-3.174,1.745-5.102c0-2.353-0.955-4.483-2.497-6.026
			L33.849,6.012c-0.343-0.544-0.726-1.06-1.179-1.515C31.127,2.954,28.996,2,26.644,2C15.28,2,1.076,15.356,1.076,31.83
			c0,4.564,1.056,8.872,2.887,12.74l-0.093,0.094c17.093,34.041,45.502,62.45,79.545,79.543l0.091-0.091
			c3.867,1.831,8.176,2.885,12.74,2.885c16.474,0,29.83-14.205,29.83-25.568c0-0.014-0.003-0.028-0.003-0.044H126.031z
			 M96.246,121.318c-3.562,0-7.03-0.788-10.308-2.339c-0.306-0.144-0.623-0.258-0.946-0.341
			C52.699,102.161,25.938,75.406,9.455,43.116c-0.089-0.33-0.207-0.661-0.358-0.977c-1.552-3.282-2.34-6.75-2.34-10.309
			c0-13.777,12.064-24.148,19.886-24.148c1.022,0,1.698,0.522,2.009,0.832c0.072,0.075,0.198,0.222,0.386,0.522
			c0.101,0.161,0.209,0.316,0.326,0.466l18.707,24.053c0.144,0.186,0.301,0.361,0.467,0.527c0.311,0.31,0.832,0.987,0.832,2.008
			c0,0.502-0.139,0.976-0.412,1.415l-6.331,6.281c-0.029,0.03-0.057,0.058-0.086,0.089c-2.296,2.159-3.603,5.149-3.603,8.284
			c0,2.935,1.137,5.732,3.12,7.829c0.071,0.111,0.144,0.222,0.223,0.33c6.983,9.649,15.564,18.197,25.506,25.41
			c0.076,0.055,0.154,0.108,0.233,0.161c2.1,2.014,4.916,3.174,7.867,3.174c2.967,0,5.826-1.185,7.948-3.274
			c0.11-0.094,0.216-0.194,0.319-0.299l6.363-6.412c0.445-0.277,0.922-0.419,1.422-0.419c1.022,0,1.698,0.522,2.008,0.832
			c0.167,0.167,0.343,0.322,0.527,0.472l24.055,18.704c0.154,0.119,0.315,0.23,0.48,0.333c0.301,0.189,0.438,0.311,0.506,0.377
			c0.311,0.311,0.832,0.985,0.832,2.009c0,0.191,0.01,0.38,0.029,0.571C119.935,109.783,109.721,121.318,96.246,121.318z
			 M69.291,36.091c12.552,0,22.727,10.176,22.727,22.73c0,1.567,1.272,2.838,2.841,2.838c1.569,0,2.841-1.271,2.841-2.838
			c0-15.692-12.719-28.412-28.409-28.412c-1.569,0-2.841,1.271-2.841,2.841C66.45,34.82,67.722,36.091,69.291,36.091z M69.291,7.682
			c28.241,0,51.136,22.897,51.136,51.139c0,1.567,1.272,2.838,2.841,2.838c1.569,0,2.841-1.271,2.841-2.838
			C126.109,27.438,100.671,2,69.291,2c-1.569,0-2.841,1.273-2.841,2.841C66.45,6.411,67.722,7.682,69.291,7.682z M69.291,64.5
			c3.138,0,5.682-2.544,5.682-5.679c0-3.141-2.544-5.685-5.682-5.685c-3.138,0-5.682,2.544-5.682,5.685
			C63.609,61.956,66.153,64.5,69.291,64.5z"/>
	</g>
</g>
<g id="Chat_Bubbles_x40_2x.png" style="display:none;">
	<g style="display:inline;">
		<path style="fill:#0B80E0;" d="M125.913,48.718c0-20.679-19.866-37.441-44.375-37.441c-18.304,0-34.013,9.355-40.794,22.708
			c2.189-0.282,4.415-0.463,6.685-0.49c6.592-9.921,19.409-16.67,34.11-16.67c21.41,0,38.828,14.309,38.828,31.895
			c0,8.564-4.128,16.619-11.625,22.686c-1.728,1.4-2.456,3.7-1.844,5.837l2.307,8.071L97.737,80.9
			c-0.225,1.88-0.639,3.708-1.137,5.506l20.993,8.074l-5.363-18.764C120.65,68.904,125.913,59.338,125.913,48.718z M48.256,39.011
			c-24.506,0-44.375,16.762-44.375,37.441c0,10.623,5.265,20.186,13.683,26.998l-5.363,18.764l24.874-9.566
			c3.578,0.785,7.31,1.246,11.18,1.246c24.506,0,44.375-16.762,44.375-37.441S72.762,39.011,48.256,39.011z M48.256,108.347
			c-3.253,0-6.614-0.374-9.994-1.116c-0.39-0.087-0.791-0.13-1.186-0.13c-0.677,0-1.354,0.125-1.994,0.368l-14.493,5.577
			l2.305-8.071c0.612-2.14-0.114-4.436-1.842-5.834c-7.497-6.07-11.625-14.125-11.625-22.689c0-17.586,17.418-31.894,38.828-31.894
			s38.828,14.309,38.828,31.894C87.085,94.039,69.667,108.347,48.256,108.347z"/>
	</g>
</g>
<g id="Mails" style="display:none;">
	<g style="display:inline;">
		<path style="fill:#0B80E0;" d="M92.631,39.011H14.975c-6.127,0-11.094,4.967-11.094,11.094v49.922
			c0,6.127,4.967,11.094,11.094,11.094h77.656c6.127,0,11.094-4.967,11.094-11.094V50.105
			C103.725,43.979,98.758,39.011,92.631,39.011z M14.975,44.558h77.656c1.381,0,2.633,0.526,3.602,1.362L57.563,84.592
			c-1.005,0.999-2.34,1.557-3.759,1.557c-1.419,0-2.755-0.558-3.759-1.557L11.373,45.918C12.345,45.084,13.594,44.558,14.975,44.558
			z M9.428,51.817l23.249,23.249L9.428,98.315V51.817z M92.631,105.574H14.975c-1.381,0-2.63-0.523-3.602-1.359l25.226-25.226
			l9.523,9.523c2.123,2.123,4.902,3.185,7.681,3.185c2.781,0,5.56-1.062,7.681-3.185l9.523-9.523l25.226,25.226
			C95.264,105.051,94.013,105.574,92.631,105.574z M98.178,98.315L74.929,75.066L98.178,51.82V98.315z M114.819,16.824H37.163
			c-6.126,0-11.094,4.967-11.094,11.094v2.773c0,1.533,1.241,2.773,2.773,2.773c1.533,0,2.773-1.241,2.773-2.773v-2.773
			c0-3.063,2.484-5.547,5.547-5.547h77.656c3.063,0,5.547,2.484,5.547,5.547v49.922c0,3.063-2.484,5.547-5.547,5.547h-2.773
			c-1.533,0-2.773,1.243-2.773,2.773c0,1.533,1.24,2.773,2.773,2.773h2.773c6.127,0,11.094-4.967,11.094-11.094V27.918
			C125.913,21.791,120.945,16.824,114.819,16.824z"/>
	</g>
</g>
</svg>
