<?xml version="1.0" encoding="iso-8859-1"?>
<!-- Generator: Adobe Illustrator 21.1.0, SVG Export Plug-In . SVG Version: 6.00 Build 0)  -->
<svg version="1.1" id="Layer_1" xmlns="http://www.w3.org/2000/svg" xmlns:xlink="http://www.w3.org/1999/xlink" x="0px" y="0px"
	 width="128px" height="128px" viewBox="0 0 128 128" style="enable-background:new 0 0 128 128;" xml:space="preserve">
<g id="Phone_2_x40_2x.png" style="display:none;">
	<g style="display:inline;">
		<path style="fill:#0B80E0;" d="M126.031,101.388c0-2.353-0.955-4.484-2.497-6.026c-0.452-0.455-0.968-0.838-1.515-1.179
			L97.966,75.475c-1.543-1.543-3.673-2.497-6.026-2.497c-1.928,0-3.684,0.666-5.108,1.748l-6.711,6.764l-0.017-0.017
			c-1.04,1.163-2.536,1.909-4.217,1.909c-1.923,0-3.612-0.96-4.644-2.419c-0.036,0.056-0.083,0.108-0.119,0.167
			c-9.285-6.736-17.512-14.845-24.239-24.14c0.066-0.044,0.125-0.094,0.191-0.139c-1.482-1.035-2.455-2.747-2.455-4.691
			c0-1.74,0.793-3.279,2.017-4.328l-0.009-0.011l6.678-6.628c1.085-1.418,1.745-3.174,1.745-5.102c0-2.353-0.955-4.483-2.497-6.026
			L33.849,6.012c-0.343-0.544-0.726-1.06-1.179-1.515C31.127,2.954,28.996,2,26.644,2C15.28,2,1.076,15.356,1.076,31.83
			c0,4.564,1.056,8.872,2.887,12.74l-0.093,0.094c17.093,34.041,45.502,62.45,79.545,79.543l0.091-0.091
			c3.867,1.831,8.176,2.885,12.74,2.885c16.474,0,29.83-14.205,29.83-25.568c0-0.014-0.003-0.028-0.003-0.044H126.031z
			 M96.246,121.318c-3.562,0-7.03-0.788-10.308-2.339c-0.306-0.144-0.623-0.258-0.946-0.341
			C52.699,102.161,25.938,75.406,9.455,43.116c-0.089-0.33-0.207-0.661-0.358-0.977c-1.552-3.282-2.34-6.75-2.34-10.309
			c0-13.777,12.064-24.148,19.886-24.148c1.022,0,1.698,0.522,2.009,0.832c0.072,0.075,0.198,0.222,0.386,0.522
			c0.101,0.161,0.209,0.316,0.326,0.466l18.707,24.053c0.144,0.186,0.301,0.361,0.467,0.527c0.311,0.31,0.832,0.987,0.832,2.008
			c0,0.502-0.139,0.976-0.412,1.415l-6.331,6.281c-0.029,0.03-0.057,0.058-0.086,0.089c-2.296,2.159-3.603,5.149-3.603,8.284
			c0,2.935,1.137,5.732,3.12,7.829c0.071,0.111,0.144,0.222,0.223,0.33c6.983,9.649,15.564,18.197,25.506,25.41
			c0.076,0.055,0.154,0.108,0.233,0.161c2.1,2.014,4.916,3.174,7.867,3.174c2.967,0,5.826-1.185,7.948-3.274
			c0.11-0.094,0.216-0.194,0.319-0.299l6.363-6.412c0.445-0.277,0.922-0.419,1.422-0.419c1.022,0,1.698,0.522,2.008,0.832
			c0.167,0.167,0.343,0.322,0.527,0.472l24.055,18.704c0.154,0.119,0.315,0.23,0.48,0.333c0.301,0.189,0.438,0.311,0.506,0.377
			c0.311,0.311,0.832,0.985,0.832,2.009c0,0.191,0.01,0.38,0.029,0.571C119.935,109.783,109.721,121.318,96.246,121.318z
			 M69.291,36.091c12.552,0,22.727,10.176,22.727,22.73c0,1.567,1.272,2.838,2.841,2.838c1.569,0,2.841-1.271,2.841-2.838
			c0-15.692-12.719-28.412-28.409-28.412c-1.569,0-2.841,1.271-2.841,2.841C66.45,34.82,67.722,36.091,69.291,36.091z M69.291,7.682
			c28.241,0,51.136,22.897,51.136,51.139c0,1.567,1.272,2.838,2.841,2.838c1.569,0,2.841-1.271,2.841-2.838
			C126.109,27.438,100.671,2,69.291,2c-1.569,0-2.841,1.273-2.841,2.841C66.45,6.411,67.722,7.682,69.291,7.682z M69.291,64.5
			c3.138,0,5.682-2.544,5.682-5.679c0-3.141-2.544-5.685-5.682-5.685c-3.138,0-5.682,2.544-5.682,5.685
			C63.609,61.956,66.153,64.5,69.291,64.5z"/>
	</g>
</g>
<g id="Chat_Bubbles_x40_2x.png" style="display:none;">
	<path style="display:inline;fill:#0B80E0;" d="M47.363,38.054c-24.788,0-44.886,16.955-44.886,37.872
		c0,10.745,5.326,20.418,13.841,27.308l-5.424,18.98l25.161-9.676c3.619,0.794,7.394,1.26,11.309,1.26
		c24.788,0,44.886-16.955,44.886-37.872C92.248,55.009,72.15,38.054,47.363,38.054z M47.363,108.188
		c-3.29,0-6.69-0.378-10.109-1.129c-0.394-0.088-0.8-0.132-1.2-0.132c-0.685,0-1.37,0.126-2.016,0.373l-14.66,5.641l2.332-8.164
		c0.619-2.164-0.115-4.487-1.863-5.901c-7.583-6.14-11.758-14.287-11.758-22.95c0-17.788,17.619-32.262,39.275-32.262
		s39.275,14.473,39.275,32.262C86.638,93.714,69.019,108.188,47.363,108.188z M125.913,47.872C125.913,26.955,105.818,10,81.027,10
		c-18.514,0-34.404,9.462-41.264,22.969c2.214-0.285,4.466-0.469,6.761-0.496c6.668-10.035,19.632-16.862,34.503-16.862
		c21.657,0,39.275,14.473,39.275,32.262c0,8.663-4.175,16.81-11.758,22.947c-1.748,1.416-2.485,3.742-1.866,5.904l2.334,8.164
		l-11.6-4.463c-0.227,1.901-0.646,3.75-1.151,5.57l21.235,8.167l-5.424-18.98C120.59,68.291,125.913,58.614,125.913,47.872z"/>
</g>
<g id="Mails" style="display:none;">
	<g style="display:inline;">
		<path style="fill:#0B80E0;" d="M92.631,39.011H14.975c-6.127,0-11.094,4.967-11.094,11.094v49.922
			c0,6.127,4.967,11.094,11.094,11.094h77.656c6.127,0,11.094-4.967,11.094-11.094V50.105
			C103.725,43.979,98.758,39.011,92.631,39.011z M14.975,44.558h77.656c1.381,0,2.633,0.526,3.602,1.362L57.563,84.592
			c-1.005,0.999-2.34,1.557-3.759,1.557c-1.419,0-2.755-0.558-3.759-1.557L11.373,45.918C12.345,45.084,13.594,44.558,14.975,44.558
			z M9.428,51.817l23.249,23.249L9.428,98.315V51.817z M92.631,105.574H14.975c-1.381,0-2.63-0.523-3.602-1.359l25.226-25.226
			l9.523,9.523c2.123,2.123,4.902,3.185,7.681,3.185c2.781,0,5.56-1.062,7.681-3.185l9.523-9.523l25.226,25.226
			C95.264,105.051,94.013,105.574,92.631,105.574z M98.178,98.315L74.929,75.066L98.178,51.82V98.315z M114.819,16.824H37.163
			c-6.126,0-11.094,4.967-11.094,11.094v2.773c0,1.533,1.241,2.773,2.773,2.773c1.533,0,2.773-1.241,2.773-2.773v-2.773
			c0-3.063,2.484-5.547,5.547-5.547h77.656c3.063,0,5.547,2.484,5.547,5.547v49.922c0,3.063-2.484,5.547-5.547,5.547h-2.773
			c-1.533,0-2.773,1.243-2.773,2.773c0,1.533,1.24,2.773,2.773,2.773h2.773c6.127,0,11.094-4.967,11.094-11.094V27.918
			C125.913,21.791,120.945,16.824,114.819,16.824z"/>
	</g>
</g>
<g id="Play" style="display:none;">
	<g style="display:inline;">
		<path style="fill:#0B80E0;" d="M91.097,61.831l0.028-0.033l-0.499-0.284c-0.073-0.036-0.134-0.091-0.211-0.121L51.67,39.253
			l-0.028,0.033c-0.482-0.385-1.068-0.65-1.734-0.65c-1.556,0-2.818,1.261-2.818,2.818v45.091c0,1.558,1.262,2.818,2.818,2.818
			c0.666,0,1.252-0.264,1.734-0.65l0.028,0.033l38.746-22.141c0.074-0.03,0.135-0.083,0.207-0.118l0.502-0.286l-0.028-0.033
			c0.645-0.517,1.084-1.277,1.084-2.169S91.743,62.349,91.097,61.831z M52.727,81.729V46.271L83.752,64L52.727,81.729z M64,2
			C29.759,2,2,29.758,2,64c0,34.242,27.759,62,62,62c34.242,0,62-27.758,62-62C126,29.758,98.242,2,64,2z M64,120.364
			C32.872,120.364,7.636,95.127,7.636,64C7.636,32.871,32.872,7.636,64,7.636c31.129,0,56.364,25.234,56.364,56.364
			C120.364,95.127,95.129,120.364,64,120.364z"/>
	</g>
</g>
<g id="Down_Arrow_2" style="display:none;">
	<g style="display:inline;">
		<path style="fill:#0B80E0;" d="M122.875,33c-0.864,0-1.645,0.351-2.209,0.916L63.5,88.072L6.334,33.916
			C5.77,33.351,4.989,33,4.125,33C2.398,33,1,34.398,1,36.125c0,0.864,0.348,1.645,0.916,2.209l59.375,56.25
			c0.564,0.568,1.346,0.916,2.209,0.916c0.864,0,1.645-0.348,2.209-0.916l59.375-56.25c0.568-0.564,0.916-1.346,0.916-2.209
			C126,34.398,124.602,33,122.875,33z"/>
	</g>
</g>
<g id="Up_Arrow_2" style="display:none;">
	<g style="display:inline;">
		<path style="fill:#0B80E0;" d="M125.084,90.166l-59.375-56.25C65.145,33.351,64.364,33,63.5,33c-0.861,0-1.645,0.351-2.209,0.916
			L1.916,90.166C1.348,90.733,1,91.511,1,92.375C1,94.102,2.398,95.5,4.125,95.5c0.864,0,1.645-0.348,2.209-0.916L63.5,40.428
			l57.166,54.156c0.564,0.568,1.346,0.916,2.209,0.916c1.727,0,3.125-1.398,3.125-3.125C126,91.511,125.652,90.733,125.084,90.166z"
			/>
	</g>
</g>
<g id="X_x40_2x.png" style="display:none;">
	<g style="display:inline;">
		<path style="fill:#0B80E0;" d="M125.25,62.25c-0.484-0.484-1.116-0.726-1.75-0.724l-57.025,0l0-57.025
			c0.002-0.634-0.241-1.266-0.724-1.75c-0.966-0.966-2.533-0.967-3.5,0c-0.482,0.482-0.723,1.116-0.724,1.75l0,57.025l-57.025,0
			c-0.632,0-1.266,0.241-1.75,0.724c-0.967,0.967-0.966,2.534,0,3.5c0.484,0.484,1.116,0.726,1.752,0.726l57.023-0.002l0,57.025
			c-0.002,0.634,0.241,1.266,0.724,1.75c0.967,0.967,2.533,0.967,3.5,0c0.484-0.484,0.725-1.118,0.724-1.75l0-57.025l57.025,0
			c0.634-0.002,1.268-0.242,1.75-0.724C126.217,64.783,126.217,63.217,125.25,62.25z"/>
	</g>
</g>
<g id="Users_1_x40_2x.png" style="display:none;">
	<g style="display:inline;">
		<path style="fill:#0B80E0;" d="M75.561,92.31c0,0-11.631-2.718-11.631-14.631c0-10.465,4.779-14.15,6.625-16.695
			c0,0,3.789-3.255,1.253-13.764c4.228-5.758,5.023-15.935,0.425-26.713c-2.886-6.765-5.436-10.47-9.321-12.623
			c-2.855-1.583-6.091-2.17-9.24-2.17c-5.867,0-11.43,2.039-13.65,3.465c-6.494,2.858-10.862,5.49-14.956,15.521
			c-3.322,8.141,0.677,17.568,2.757,22.163c-2.537,10.509,0.984,14.122,0.984,14.122c1.846,2.545,6.625,6.231,6.625,16.695
			c0,11.913-11.631,14.631-11.631,14.631C16.414,94.914,1,100.241,1,117.423c0,0,0,2.864,2.864,2.864H95.5
			c2.864,0,2.864-2.864,2.864-2.864C98.364,100.241,82.949,94.914,75.561,92.31z M6.926,114.559
			c1.412-9.788,10.126-13.778,18.524-16.757c5.629-1.454,15.711-7.372,15.711-20.124c0-10.915-4.503-16.231-6.921-19.089
			c-0.302-0.355-0.579-0.671-0.794-0.97c-0.067-0.09-0.137-0.179-0.21-0.269c-0.201-0.389-1.337-2.961,0.157-9.147
			c0.299-1.239,0.176-2.545-0.349-3.705c-1.421-3.135-5.193-11.463-2.673-17.635c3.412-8.362,6.449-10.017,11.961-12.442
			c0.274-0.12,0.537-0.263,0.789-0.425c1.387-0.892,5.906-2.553,10.554-2.553c2.553,0,4.726,0.487,6.463,1.449
			c2.061,1.144,4.013,3.258,6.829,9.863c3.988,9.343,2.986,17.316,0.227,21.075c-0.999,1.359-1.345,3.093-0.951,4.732
			c1.39,5.758,0.367,8.085,0.151,8.49c-0.168,0.179-0.327,0.369-0.473,0.568c-0.215,0.299-0.492,0.615-0.794,0.97
			c-2.419,2.858-6.921,8.174-6.921,19.089c0,12.755,10.084,18.669,15.714,20.124c8.317,2.939,17.103,6.916,18.521,16.757H6.926z
			 M106.208,89.382c0,0-10.605-2.45-10.605-13.172c0-9.419,5.076-12.735,6.756-15.023c0,0,3.456-2.933,1.144-12.392
			c3.854-5.182,4.757-14.341,0.565-24.042c-2.629-6.088-5.85-9.421-9.391-11.359c-2.604-1.426-5.554-1.949-8.426-1.949
			c-4.281,0-8.355,1.169-10.86,2.296c0.731,1.418,1.428,2.92,2.11,4.519c0.098,0.229,0.165,0.461,0.259,0.691
			c1.621-0.722,4.873-1.781,8.492-1.781c2.254,0,4.164,0.419,5.677,1.25c1.779,0.973,4.43,2.925,6.882,8.608
			c3.49,8.073,2.562,15.034,0.098,18.351c-1.018,1.37-1.373,3.121-0.968,4.779c1.158,4.74,0.411,6.731,0.224,7.128
			c-0.151,0.162-0.291,0.333-0.422,0.512c-0.115,0.154-0.512,0.582-0.803,0.892c-2.469,2.654-7.064,7.59-7.064,17.52
			c0,11.827,9.424,17.313,14.704,18.667c7.548,2.635,14.903,5.92,16.413,13.952h-18.117c0.516,1.767,0.881,3.669,1.056,5.727h20.457
			c2.612,0,2.612-2.576,2.612-2.576C127,96.516,112.945,91.723,106.208,89.382z"/>
	</g>
</g>
<g id="Checkmark_2_x40_2x.png">
	<g>
		<path style="fill:#0B80E0;" d="M63.953,79.695L37.811,53.553c-0.509-0.509-1.214-0.826-1.992-0.826
			C34.26,52.727,33,53.99,33,55.545c0,0.779,0.314,1.484,0.826,1.995L62.008,85.72c0.512,0.512,1.213,0.826,1.992,0.826
			c0.804,0,1.516-0.341,2.031-0.881l0.008,0.011l47.059-49.302c0.003,0.005,0.008,0.011,0.011,0.016l4.023-4.222
			c-0.003-0.003-0.005-0.008-0.008-0.014l8.097-8.482l-0.008-0.008c0.482-0.504,0.787-1.183,0.787-1.938
			c0-1.555-1.261-2.818-2.818-2.818c-0.804,0-1.517,0.344-2.031,0.881l-0.006-0.008l-7.244,7.588
			c-0.005-0.008-0.011-0.017-0.016-0.022l-3.93,4.12c0.006,0.008,0.008,0.016,0.014,0.022L63.953,79.695z M121.018,40.238
			c-1.109-1.09-2.895-1.076-3.985,0.033c-0.776,0.79-0.966,1.916-0.628,2.898l-0.061,0.019c2.565,6.445,4.018,13.453,4.018,20.812
			c0,31.129-25.234,56.364-56.364,56.364C32.873,120.364,7.636,95.129,7.636,64C7.636,32.871,32.873,7.636,64,7.636
			c15.932,0,30.295,6.63,40.539,17.261l0.036-0.036c1.115,1.002,2.821,0.977,3.883-0.102c1.09-1.109,1.076-2.893-0.033-3.985
			c-0.105-0.105-0.242-0.148-0.358-0.234C96.841,9.125,81.28,2,64,2C29.758,2,2,29.758,2,64c0,34.242,27.758,62,62,62
			c34.242,0,62-27.758,62-62c0-7.97-1.558-15.563-4.299-22.565C121.569,41.001,121.365,40.582,121.018,40.238z"/>
	</g>
</g>
</svg>
